Coordinates
version=1
nRows=29
nColumns=22
inDegrees=yes

Units are S.I. units (second, meters, Newtons, ...)
If the header above contains a line with 'inDegrees', this indicates whether rotational values are in degrees (yes) or radians (no).

endheader
time	pelvis_tilt	pelvis_list	pelvis_rotation	pelvis_tx	pelvis_ty	pelvis_tz	hip_flexion_r	hip_adduction_r	hip_rotation_r	knee_angle_r	ankle_angle_r	subtalar_angle_r	hip_flexion_l	hip_adduction_l	hip_rotation_l	knee_angle_l	ankle_angle_l	subtalar_angle_l	lumbar_extension	lumbar_bending	lumbar_rotation
      1.57000000	    -10.06173277	      0.37173535	    -13.43740659	     -1.07496576	      0.86936918	     -0.45230156	     15.90760647	      1.99740928	      9.01824202	    -23.32747321	     20.29162654	    -10.51332700	     14.00720291	     -8.08057844	     -7.74006492	    -27.34037459	     20.30023256	      6.37834752	      0.13753152	      2.50525156	     11.77459998
      1.58000000	     -9.90962582	      0.05863343	    -13.41130894	     -1.07316930	      0.86908055	     -0.45107681	     15.44005934	      2.33626066	      9.01025110	    -23.20810650	     20.44077565	    -10.59820977	     15.08129716	     -8.57848175	     -7.32859945	    -29.95397801	     20.14482968	      6.54713881	     -0.23745461	      2.93298020	     11.78834293
      1.59000000	     -9.74287225	     -0.17742016	    -13.33213176	     -1.07135996	      0.86880606	     -0.44994680	     15.01271659	      2.58048391	      8.93871042	    -23.15874688	     20.63373920	    -10.77807390	     16.27859172	     -8.98162419	     -6.85977786	    -32.74027499	     19.69871526	      6.91640960	     -0.62000953	      3.25292989	     11.78919563
      1.60000000	     -9.45114944	     -0.39523538	    -13.21682592	     -1.06942279	      0.86876395	     -0.44890400	     14.43691934	      2.75813424	      8.83349807	    -23.07688816	     20.81953011	    -10.84802342	     17.42990299	     -9.32185363	     -6.36751651	    -35.63790051	     19.09173986	      7.13813568	     -1.14722172	      3.50857257	     11.77905342
      1.61000000	     -9.13274650	     -0.54447675	    -13.07469337	     -1.06746708	      0.86879219	     -0.44790250	     13.86514849	      2.85437701	      8.69805865	    -23.02401305	     21.01739633	    -10.93048877	     18.65163633	     -9.57200937	     -5.84965736	    -38.61785776	     18.25410403	      7.38256641	     -1.69755316	      3.65800502	     11.76963450
      1.62000000	     -8.78878636	     -0.63061800	    -12.92624002	     -1.06542628	      0.86890187	     -0.44694539	     13.28311327	      2.87395233	      8.55522976	    -22.98157363	     21.22001478	    -11.01609167	     19.90724396	     -9.74091856	     -5.35387439	    -41.61082122	     17.24943435	      7.58999278	     -2.26321591	      3.71743790	     11.79169375
      1.63000000	     -8.43602619	     -0.65904711	    -12.79537247	     -1.06330267	      0.86908263	     -0.44597164	     12.69382801	      2.83245287	      8.42259319	    -22.92154159	     21.41437425	    -11.09132496	     21.18064591	     -9.84347030	     -4.89865197	    -44.54189752	     16.15131235	      7.70005574	     -2.82758436	      3.69197172	     11.85291539
      1.64000000	     -8.10771235	     -0.64381428	    -12.70002924	     -1.06107444	      0.86928463	     -0.44495306	     12.13038396	      2.75477308	      8.30927349	    -22.85146487	     21.60635983	    -11.16471512	     22.47464223	     -9.91314646	     -4.51465494	    -47.34126459	     15.05197823	      7.69796683	     -3.34980220	      3.60576966	     11.96454128
      1.65000000	     -7.82001789	     -0.59079223	    -12.65310489	     -1.05868997	      0.86949010	     -0.44388564	     11.59299367	      2.64821220	      8.22280282	    -22.74539637	     21.78513009	    -11.23001508	     23.77157892	     -9.96668251	     -4.22851172	    -49.93577182	     14.04494459	      7.56400437	     -3.80520484	      3.47328486	     12.13629843
      1.66000000	     -7.58247817	     -0.50355218	    -12.66175354	     -1.05610029	      0.86970785	     -0.44279393	     11.07468686	      2.51394548	      8.18163270	    -22.57638010	     21.92328115	    -11.27825523	     25.04848639	    -10.01152427	     -4.04755630	    -52.25240062	     13.20084139	      7.31486845	     -4.17689758	      3.30730791	     12.38680381
      1.67000000	     -7.39090401	     -0.38994531	    -12.73366452	     -1.05332763	      0.86991156	     -0.44164922	     10.59221408	      2.36715050	      8.20593291	    -22.39120373	     22.07771807	    -11.32252731	     26.28830714	    -10.07723251	     -4.00619673	    -54.25489224	     12.59764187	      6.91191557	     -4.47489664	      3.11315410	     12.67932519
      1.68000000	     -7.22828304	     -0.25995728	    -12.86496000	     -1.05030133	      0.87017925	     -0.44044967	     10.08554701	      2.20457690	      8.27751952	    -22.11298467	     22.13482036	    -11.32944185	     27.44566597	    -10.17782605	     -4.10647647	    -55.88349099	     12.19752243	      6.54708677	     -4.71199827	      2.89627229	     13.03775048
      1.69000000	     -7.10117020	     -0.09913412	    -13.02991951	     -1.04703699	      0.87044695	     -0.43930736	      9.58612430	      2.00577985	      8.38619839	    -21.78863412	     22.24429514	    -11.33979754	     28.53686366	    -10.27234708	     -4.29917790	    -57.12740820	     12.04449624	      6.01586859	     -4.87917611	      2.65849343	     13.41992423
      1.70000000	     -6.98339609	      0.06410364	    -13.24565585	     -1.04355252	      0.87078532	     -0.43811711	      9.05223707	      1.80292927	      8.54640206	    -21.39584783	     22.27177487	    -11.32627652	     29.52098572	    -10.42329334	     -4.62241146	    -57.96917923	     11.99448090	      5.62090567	     -5.01897735	      2.41155814	     13.84960585
      1.71000000	     -6.88430705	      0.24728062	    -13.45405391	     -1.03982969	      0.87112600	     -0.43703014	      8.49907255	      1.56392214	      8.70076067	    -20.94614877	     22.32941125	    -11.31872477	     30.42800625	    -10.55070663	     -4.96586227	    -58.41836273	     12.06213723	      5.02381466	     -5.11085568	      2.15106311	     14.25341432
      1.72000000	     -6.80800020	      0.41948142	    -13.68999780	     -1.03593293	      0.87146844	     -0.43593021	      7.92989017	      1.33827966	      8.91011453	    -20.44167953	     22.31422668	    -11.29235174	     31.25710627	    -10.72994736	     -5.36878224	    -58.48878810	     12.11989193	      4.65155635	     -5.16877059	      1.90320978	     14.69213578
      1.73000000	     -6.73958459	      0.59165274	    -13.91271493	     -1.03184825	      0.87178426	     -0.43490874	      7.33353446	      1.09748257	      9.10689955	    -19.89097255	     22.30393755	    -11.26101287	     32.00712366	    -10.89846644	     -5.75420331	    -58.20082921	     12.17818068	      4.16466943	     -5.20805601	      1.65718984	     15.10362960
      1.74000000	     -6.66384754	      0.74992175	    -14.09107016	     -1.02756817	      0.87205464	     -0.43403693	      6.69447413	      0.84519886	      9.25113426	    -19.30867706	     22.36005922	    -11.20997357	     32.67456027	    -11.03304905	     -6.06016311	    -57.58328925	     12.22379005	      3.51071126	     -5.25186964	      1.43034808	     15.46935929
      1.75000000	     -6.61318506	      0.88084057	    -14.26582463	     -1.02314341	      0.87222484	     -0.43319839	      6.05509698	      0.61721755	      9.38452271	    -18.70320589	     22.36092858	    -11.12965256	     33.29325148	    -11.19086550	     -6.31804642	    -56.67584825	     12.18962950	      3.00739195	     -5.27244127	      1.23524070	     15.82051455
      1.76000000	     -6.55932461	      0.98492291	    -14.40457387	     -1.01855400	      0.87230163	     -0.43248489	      5.38660440	      0.39664668	      9.46175845	    -18.08454097	     22.37234123	    -11.01084445	     33.84276156	    -11.31944652	     -6.45824284	    -55.50191087	     12.09570104	      2.50044707	     -5.30458278	      1.07016619	     16.14112606
      1.77000000	     -6.50293746	      1.05064228	    -14.52015745	     -1.01377683	      0.87226175	     -0.43184326	      4.68242461	      0.20125177	      9.50164230	    -17.44882948	     22.39330753	    -10.86769766	     34.32429466	    -11.45312948	     -6.51121359	    -54.10433958	     11.94353566	      2.10106720	     -5.34739983	      0.94339259	     16.42737681
      1.78000000	     -6.44159891	      1.08372762	    -14.60578628	     -1.00882539	      0.87209718	     -0.43131848	      3.94961875	      0.02260868	      9.49563872	    -16.81061428	     22.42490076	    -10.69330884	     34.74142961	    -11.56250060	     -6.43852798	    -52.50675828	     11.74725685	      1.76599848	     -5.40746571	      0.85149028	     16.68126353
      1.79000000	     -6.37320038	      1.08700294	    -14.67327070	     -1.00369525	      0.87178829	     -0.43085993	      3.19023531	     -0.13627967	      9.46580758	    -16.17881275	     22.49299488	    -10.48378758	     35.09419924	    -11.66332829	     -6.26747210	    -50.74644455	     11.53581243	      1.50802728	     -5.48431609	      0.78336847	     16.90700261
      1.80000000	     -6.29937599	      1.06221200	    -14.73171180	     -0.99839144	      0.87134032	     -0.43049093	      2.41283730	     -0.27797786	      9.41288998	    -15.56167347	     22.57318075	    -10.25680236	     35.38631875	    -11.75804068	     -6.01588963	    -48.84741277	     11.30600620	      1.36024265	     -5.57860897	      0.74565754	     17.11762995
      1.81000000	     -6.22327388	      1.01708415	    -14.78611233	     -0.99292437	      0.87074081	     -0.43019044	      1.62805285	     -0.40590988	      9.34954847	    -14.96724393	     22.66728208	    -10.02199653	     35.62718718	    -11.85022126	     -5.70077800	    -46.84091475	     11.06913695	      1.32425844	     -5.68227634	      0.72443876	     17.31451837
      1.82000000	     -6.15176777	      0.95463375	    -14.83715701	     -0.98729923	      0.86997818	     -0.42993710	      0.85037763	     -0.51956940	      9.25489622	    -14.40696695	     22.75485520	     -9.80487633	     35.83221873	    -11.94823102	     -5.33938387	    -44.75656913	     10.82538549	      1.38548905	     -5.78797157	      0.71394047	     17.51440615
      1.83000000	     -6.07575474	      0.88497805	    -14.90340325	     -0.98152695	      0.86906437	     -0.42972542	      0.07995464	     -0.62872068	      9.20287602	    -13.89548057	     22.92544310	     -9.55960144	     35.98334143	    -12.04914503	     -4.95721083	    -42.60620145	     10.62382774	      1.54685828	     -5.90244847	      0.70745214	     17.69861752
      1.84000000	     -6.01970066	      0.80792606	    -14.98253040	     -0.97560480	      0.86797023	     -0.42955192	     -0.65367019	     -0.72889752	      9.13986360	    -13.43496498	     23.12419333	     -9.31769698	     36.12003474	    -12.16771730	     -4.57437907	    -40.42627508	     10.43593466	      1.79025381	     -5.99610247	      0.70529942	     17.90305797
      1.85000000	     -5.99320286	      0.73058358	    -15.06152374	     -0.96954544	      0.86669303	     -0.42943189	     -1.33547248	     -0.82306736	      9.06381176	    -13.03039328	     23.32002432	     -9.14486073	     36.26318644	    -12.29197402	     -4.17412833	    -38.23894447	     10.24534119	      2.02449881	     -6.05635907	      0.70585925	     18.10360077
